<svg xmlns="http://www.w3.org/2000/svg" width="163.807" height="116.94" viewBox="0 0 163.807 116.94">
  <g id="join-right" transform="translate(-2.234 -6.749)">
    <path id="Path_556" data-name="Path 556" d="M41.4,6.75A58.184,58.184,0,0,0,18,11.664a58.409,58.409,0,0,1,35.1,53.551A58.41,58.41,0,0,1,18,118.772,58.461,58.461,0,1,0,41.4,6.75Z" transform="translate(66.152 0.003)" fill="#fed831"/>
    <path id="Path_557" data-name="Path 557" d="M11.25,54.828a58.326,58.326,0,0,0,21.936,45.6,46.736,46.736,0,0,0,0-91.207,58.325,58.325,0,0,0-21.936,45.6Z" transform="translate(37.841 10.391)" fill="#fed831"/>
    <path id="Path_558" data-name="Path 558" d="M60.784,111.992A46.773,46.773,0,1,1,71.027,19.616a58.326,58.326,0,0,1,13.128-7.951,58.466,58.466,0,1,0,0,107.109,58.326,58.326,0,0,1-13.128-7.951,46.616,46.616,0,0,1-10.243,1.169Z" transform="translate(0 0)" fill="#fed831"/>
  </g>
</svg>
