<svg xmlns="http://www.w3.org/2000/svg" width="452.674" height="450.403" viewBox="0 0 452.674 450.403">
  <path id="Path_2902" data-name="Path 2902" d="M337.64,215.963c30.965-.433,60.86,6.422,88.148,21.064,30.887,16.572,66.633,34.181,77.139,67.621,10.488,33.384-8.033,68.61-24.671,99.394-14.284,26.429-39.656,42.322-62.481,61.856-25.338,21.685-44.854,56.364-78.136,58.488-33.511,2.138-59.171-27.489-85.733-48.031-25.682-19.861-52.99-38.9-65.443-68.882-13.084-31.5-16.861-67.9-4.585-99.73,11.97-31.034,40.728-51.391,69.385-68.276,26.353-15.528,55.791-23.076,86.376-23.5" transform="translate(212.473 -277.396) rotate(41)" fill="#2c2d31"/>
</svg>
