<svg xmlns="http://www.w3.org/2000/svg" width="110" height="110" viewBox="0 0 110 110">
  <path id="rectangleselection" d="M96.264,110H92.826a3.489,3.489,0,0,1-3.438-3.438V99.687a3.489,3.489,0,0,1,3.438-3.438,3.489,3.489,0,0,0,3.438-3.438A3.489,3.489,0,0,1,99.7,89.373h6.876a3.489,3.489,0,0,1,3.438,3.438v3.438A13.753,13.753,0,0,1,96.264,110Zm10.313-34.375H99.7a3.489,3.489,0,0,1-3.438-3.438V65.312A3.489,3.489,0,0,1,99.7,61.874h6.876a3.489,3.489,0,0,1,3.438,3.438v6.876a3.489,3.489,0,0,1-3.438,3.438Zm0-27.5H99.7a3.489,3.489,0,0,1-3.438-3.438V37.813A3.489,3.489,0,0,1,99.7,34.375h6.876a3.489,3.489,0,0,1,3.438,3.438v6.876a3.489,3.489,0,0,1-3.438,3.438Zm0-27.5H99.7a3.489,3.489,0,0,1-3.438-3.438,3.489,3.489,0,0,0-3.438-3.438A3.3,3.3,0,0,1,90.41,12.73a3.319,3.319,0,0,1-1.022-2.416V3.438A3.3,3.3,0,0,1,90.41,1.022,3.319,3.319,0,0,1,92.826,0h3.438a13.256,13.256,0,0,1,9.723,4.028,13.233,13.233,0,0,1,4.028,9.723v3.438a3.489,3.489,0,0,1-3.438,3.438ZM72.2,110H65.327a3.489,3.489,0,0,1-3.438-3.438V99.687a3.489,3.489,0,0,1,3.438-3.438H72.2a3.489,3.489,0,0,1,3.438,3.438v6.876A3.489,3.489,0,0,1,72.2,110Zm0-96.249H65.327a3.3,3.3,0,0,1-2.416-1.022,3.319,3.319,0,0,1-1.022-2.416V3.438a3.3,3.3,0,0,1,1.022-2.416A3.319,3.319,0,0,1,65.327,0H72.2a3.3,3.3,0,0,1,2.416,1.022A3.319,3.319,0,0,1,75.64,3.438v6.876A3.489,3.489,0,0,1,72.2,13.751ZM44.7,110H37.828a3.489,3.489,0,0,1-3.438-3.438V99.687a3.489,3.489,0,0,1,3.438-3.438H44.7a3.489,3.489,0,0,1,3.438,3.438v6.876A3.489,3.489,0,0,1,44.7,110Zm0-96.249H37.828a3.3,3.3,0,0,1-2.416-1.022,3.319,3.319,0,0,1-1.022-2.416V3.438a3.3,3.3,0,0,1,1.022-2.416A3.319,3.319,0,0,1,37.828,0H44.7a3.3,3.3,0,0,1,2.416,1.022,3.319,3.319,0,0,1,1.022,2.416v6.876A3.489,3.489,0,0,1,44.7,13.751ZM17.2,110H13.766a13.256,13.256,0,0,1-9.723-4.028A13.233,13.233,0,0,1,.015,96.249V92.811a3.3,3.3,0,0,1,1.022-2.416,3.319,3.319,0,0,1,2.416-1.022h6.876a3.489,3.489,0,0,1,3.438,3.438A3.489,3.489,0,0,0,17.2,96.249a3.489,3.489,0,0,1,3.438,3.438v6.876A3.489,3.489,0,0,1,17.2,110Zm0-96.249a3.489,3.489,0,0,0-3.438,3.438,3.489,3.489,0,0,1-3.438,3.438H3.453a3.3,3.3,0,0,1-2.416-1.022A3.319,3.319,0,0,1,.015,17.189V13.751A13.256,13.256,0,0,1,4.043,4.028,13.233,13.233,0,0,1,13.766,0H17.2A3.3,3.3,0,0,1,19.62,1.022a3.319,3.319,0,0,1,1.022,2.416v6.876A3.489,3.489,0,0,1,17.2,13.751ZM3.453,34.375h6.876a3.489,3.489,0,0,1,3.438,3.438v6.876A3.3,3.3,0,0,1,12.745,47.1a3.319,3.319,0,0,1-2.416,1.022H3.453A3.3,3.3,0,0,1,1.037,47.1,3.319,3.319,0,0,1,.015,44.688V37.813A3.3,3.3,0,0,1,1.037,35.4a3.319,3.319,0,0,1,2.416-1.022Zm0,27.5h6.876a3.489,3.489,0,0,1,3.438,3.438v6.876A3.3,3.3,0,0,1,12.745,74.6a3.319,3.319,0,0,1-2.416,1.022H3.453A3.3,3.3,0,0,1,1.037,74.6,3.319,3.319,0,0,1,.015,72.187V65.312A3.3,3.3,0,0,1,1.037,62.9a3.319,3.319,0,0,1,2.416-1.022Z" transform="translate(-0.015)" fill="#fed831"/>
</svg>
