<svg xmlns="http://www.w3.org/2000/svg" width="118" height="118" viewBox="0 0 118 118">
  <path id="registered" d="M68.614,46.292q0-5.8-3.95-7.968-2.173-1.187-7.7-1.187h-8.1v18.5H59.524A8.941,8.941,0,0,0,66.241,53.2q2.37-2.435,2.37-6.913Zm3.425,18.765,13.5,24.56a1.991,1.991,0,0,1-.066,2.042,1.833,1.833,0,0,1-1.777,1.052H73.684a1.874,1.874,0,0,1-1.845-1.121L59.066,67.555H48.859V90.6a2.031,2.031,0,0,1-2.108,2.108H37.927A2.031,2.031,0,0,1,35.82,90.6V27.392a2.031,2.031,0,0,1,2.108-2.108H57.286q8.427,0,12.511,1.58a17.084,17.084,0,0,1,8.824,7.178A21.815,21.815,0,0,1,81.846,45.9a21.374,21.374,0,0,1-2.8,10.9,17.7,17.7,0,0,1-7.6,7.211Q71.842,64.664,72.039,65.057ZM59,10.535a47.189,47.189,0,0,0-18.834,3.851,47.845,47.845,0,0,0-25.78,25.78,47.977,47.977,0,0,0,0,37.668,47.845,47.845,0,0,0,25.78,25.78,47.977,47.977,0,0,0,37.668,0,47.845,47.845,0,0,0,25.78-25.78,47.977,47.977,0,0,0,0-37.668,47.845,47.845,0,0,0-25.78-25.78A47.189,47.189,0,0,0,59,10.535ZM118,59a57.689,57.689,0,0,1-4.674,22.915,57.96,57.96,0,0,1-31.411,31.411,58.508,58.508,0,0,1-45.83,0A57.961,57.961,0,0,1,4.674,81.915a58.508,58.508,0,0,1,0-45.83A57.961,57.961,0,0,1,36.085,4.674a58.508,58.508,0,0,1,45.83,0,57.961,57.961,0,0,1,31.411,31.411A57.689,57.689,0,0,1,118,59Z" fill="#fed831"/>
</svg>
